<?xml version="1.0" encoding="UTF-8"?>
<svg id="Capa_1" data-name="Capa 1" xmlns="http://www.w3.org/2000/svg" viewBox="0 0 991.28 853.19">
  <defs>
    <style>
      .cls-1 {
        fill: #263239;
      }

      .cls-1, .cls-2, .cls-3, .cls-4, .cls-5, .cls-6, .cls-7, .cls-8, .cls-9, .cls-10, .cls-11, .cls-12, .cls-13, .cls-14, .cls-15, .cls-16, .cls-17 {
        stroke-width: 0px;
      }

      .cls-2 {
        fill: #5ebfbc;
      }

      .cls-3 {
        fill: #455a64;
      }

      .cls-4 {
        fill: #000;
      }

      .cls-5 {
        fill: #009d83;
      }

      .cls-18 {
        opacity: .24;
      }

      .cls-19 {
        opacity: .6;
      }

      .cls-6 {
        fill: #005c5f;
      }

      .cls-20 {
        opacity: .28;
      }

      .cls-21 {
        opacity: .2;
      }

      .cls-22 {
        opacity: 0;
      }

      .cls-7 {
        fill: #229e84;
      }

      .cls-23 {
        opacity: .83;
      }

      .cls-24 {
        opacity: .3;
      }

      .cls-8 {
        fill: #ee7160;
      }

      .cls-9 {
        fill: #f5f4f5;
      }

      .cls-25 {
        opacity: .26;
      }

      .cls-26 {
        opacity: .69;
      }

      .cls-10 {
        fill: #e0e0e0;
      }

      .cls-11 {
        fill: #dadada;
      }

      .cls-12 {
        fill: #575756;
      }

      .cls-13 {
        fill: #fff;
      }

      .cls-14 {
        fill: #008173;
      }

      .cls-15 {
        fill: #ec9a6e;
      }

      .cls-16 {
        fill: #f8bc9e;
      }

      .cls-17 {
        fill: #6dbe97;
      }
    </style>
  </defs>
  <ellipse class="cls-5" cx="495.64" cy="725.45" rx="495.64" ry="127.73"/>
  <path class="cls-12" d="M251.04,51.94c4.41-2.66,9.1-4.68,13.94-6.06l2.87-13.8,23.32-.41,3.36,13.69c4.89,1.2,9.65,3.06,14.15,5.57l11.78-7.72,16.78,16.2-7.3,12.05c2.67,4.41,4.68,9.1,6.06,13.95l13.8,2.87.41,23.32-13.69,3.36c-1.2,4.89-3.06,9.65-5.57,14.15l7.72,11.79-16.2,16.78-12.05-7.3c-4.41,2.66-9.1,4.68-13.94,6.06l-2.87,13.8-23.32.41-3.36-13.69c-4.89-1.2-9.65-3.06-14.15-5.57l-11.78,7.72-16.78-16.2,7.3-12.05c-2.66-4.41-4.69-9.1-6.06-13.94l-13.8-2.87-.41-23.32,13.69-3.36c1.2-4.89,3.06-9.65,5.57-14.15l-7.72-11.78,16.2-16.78,12.05,7.31h0ZM263.47,83c-9.6,9.94-9.32,25.78.62,35.37,9.94,9.6,25.78,9.32,35.37-.62,9.6-9.94,9.32-25.78-.62-35.37-9.94-9.6-25.78-9.32-35.37.62Z"/>
  <path class="cls-12" d="M626.16,24.14c5.25-3.17,10.84-5.58,16.61-7.22l3.42-16.44,27.77-.49,4,16.31c5.82,1.43,11.49,3.64,16.85,6.63l14.04-9.2,19.98,19.3-8.7,14.35c3.17,5.25,5.58,10.85,7.22,16.61l16.44,3.42.49,27.77-16.31,4c-1.43,5.82-3.64,11.49-6.63,16.85l9.2,14.04-19.29,19.98-14.35-8.7c-5.25,3.17-10.84,5.58-16.61,7.22l-3.42,16.44-27.77.49-4-16.31c-5.82-1.43-11.49-3.64-16.85-6.63l-14.04,9.2-19.98-19.29,8.7-14.35c-3.17-5.25-5.58-10.84-7.22-16.61l-16.44-3.42-.49-27.77,16.31-4c1.43-5.82,3.64-11.49,6.63-16.85l-9.2-14.04,19.29-19.98,14.35,8.7h0ZM640.97,61.14c-11.43,11.84-11.1,30.7.74,42.13,11.84,11.43,30.7,11.1,42.13-.74,11.43-11.84,11.1-30.7-.74-42.13-11.84-11.43-30.7-11.1-42.13.74Z"/>
  <path class="cls-12" d="M630.37,249.64c4.1-2.48,8.47-4.36,12.97-5.64l2.67-12.84,21.69-.38,3.12,12.74c4.55,1.12,8.98,2.84,13.16,5.18l10.96-7.19,15.61,15.07-6.8,11.21c2.48,4.1,4.36,8.47,5.64,12.98l12.84,2.67.38,21.69-12.74,3.12c-1.12,4.55-2.85,8.97-5.18,13.16l7.19,10.96-15.07,15.61-11.21-6.8c-4.1,2.48-8.47,4.36-12.97,5.64l-2.67,12.84-21.69.38-3.12-12.74c-4.55-1.12-8.98-2.85-13.16-5.18l-10.96,7.19-15.61-15.07,6.8-11.21c-2.48-4.1-4.36-8.47-5.64-12.97l-12.84-2.67-.38-21.69,12.74-3.12c1.12-4.55,2.85-8.98,5.18-13.16l-7.19-10.96,15.07-15.61,11.21,6.8h0ZM641.93,278.54c-8.93,9.25-8.67,23.98.58,32.91,9.25,8.93,23.98,8.67,32.91-.58,8.93-9.25,8.67-23.98-.58-32.91-9.25-8.93-23.98-8.67-32.91.58Z"/>
  <path class="cls-12" d="M746.16,182.89c2.28-1.38,4.7-2.42,7.21-3.13l1.48-7.13,12.05-.21,1.73,7.08c2.53.62,4.99,1.58,7.31,2.88l6.09-3.99,8.67,8.37-3.78,6.23c1.38,2.28,2.42,4.71,3.13,7.21l7.13,1.48.21,12.05-7.08,1.73c-.62,2.52-1.58,4.99-2.88,7.31l3.99,6.09-8.37,8.67-6.23-3.78c-2.28,1.38-4.71,2.42-7.21,3.13l-1.48,7.13-12.05.21-1.73-7.08c-2.53-.62-4.99-1.58-7.31-2.88l-6.09,3.99-8.67-8.37,3.78-6.23c-1.38-2.28-2.42-4.71-3.13-7.21l-7.13-1.48-.21-12.05,7.08-1.74c.62-2.53,1.58-4.99,2.88-7.31l-3.99-6.09,8.37-8.67,6.23,3.78h0ZM752.59,198.94c-4.96,5.14-4.82,13.32.32,18.28,5.14,4.96,13.32,4.82,18.28-.32,4.96-5.14,4.82-13.32-.32-18.28-5.14-4.96-13.32-4.82-18.28.32Z"/>
  <path class="cls-12" d="M401.83,24.17c2.28-1.38,4.7-2.42,7.21-3.13l1.48-7.13,12.05-.21,1.73,7.08c2.53.62,4.99,1.58,7.31,2.88l6.09-3.99,8.67,8.37-3.78,6.23c1.38,2.28,2.42,4.71,3.13,7.21l7.13,1.48.21,12.05-7.08,1.73c-.62,2.53-1.58,4.99-2.88,7.31l3.99,6.09-8.37,8.67-6.23-3.78c-2.28,1.38-4.71,2.42-7.21,3.13l-1.48,7.13-12.05.21-1.73-7.08c-2.53-.62-4.99-1.58-7.31-2.88l-6.09,3.99-8.67-8.37,3.78-6.23c-1.38-2.28-2.42-4.71-3.13-7.21l-7.13-1.48-.21-12.05,7.08-1.74c.62-2.52,1.58-4.99,2.88-7.31l-3.99-6.09,8.37-8.67,6.23,3.78h0ZM408.25,40.23c-4.96,5.14-4.82,13.32.32,18.28,5.14,4.96,13.32,4.82,18.28-.32,4.96-5.14,4.82-13.32-.32-18.28-5.14-4.96-13.32-4.82-18.28.32Z"/>
  <path class="cls-12" d="M293.3,218.79c2.28-1.38,4.7-2.42,7.21-3.13l1.48-7.13,12.05-.21,1.73,7.08c2.53.62,4.99,1.58,7.31,2.88l6.09-3.99,8.67,8.37-3.78,6.23c1.38,2.28,2.42,4.71,3.13,7.21l7.13,1.48.21,12.05-7.08,1.73c-.62,2.53-1.58,4.99-2.88,7.31l3.99,6.09-8.37,8.67-6.23-3.78c-2.28,1.38-4.71,2.42-7.21,3.13l-1.48,7.13-12.05.21-1.73-7.08c-2.53-.62-4.99-1.58-7.31-2.88l-6.09,3.99-8.67-8.37,3.78-6.23c-1.38-2.28-2.42-4.71-3.13-7.21l-7.13-1.48-.21-12.05,7.08-1.74c.62-2.53,1.58-4.99,2.88-7.31l-3.99-6.09,8.37-8.67,6.23,3.78h0ZM299.72,234.85c-4.96,5.14-4.82,13.32.32,18.28,5.14,4.96,13.32,4.82,18.28-.32,4.96-5.14,4.82-13.32-.32-18.28-5.14-4.96-13.32-4.82-18.28.32Z"/>
  <g>
    <path class="cls-1" d="M595.45,753.08l-223.45-.14c-26.87-.01-48.65-22.92-48.65-51.16l.11-588.72c0-28.26,21.81-51.16,48.7-51.14l223.45.14c26.87.02,48.65,22.92,48.65,51.16l-.11,588.72c0,28.26-21.81,51.16-48.7,51.14Z"/>
    <path class="cls-11" d="M595.38,82.88l-43.32-.03c-5.81,0-10.52,5.17-10.52,11.55v8.26c0,6.38-4.72,11.55-10.52,11.55l-84.45-.05c-5.81,0-10.52-5.18-10.52-11.56v-8.26c0-6.38-4.71-11.56-10.52-11.56h-15.24s-37.92-.03-37.92-.03c-18.83-.01-34.1,16.03-34.11,35.82l-.11,574.63c0,19.78,15.25,35.82,34.07,35.83l223.01.14c18.83.01,34.1-16.03,34.11-35.82l.11-574.63c0-19.78-15.25-35.82-34.07-35.83Z"/>
  </g>
  <path class="cls-14" d="M524.77,365.07c0,8.6-6.95,15.56-15.53,15.56s-15.53-6.97-15.53-15.56,6.95-15.57,15.53-15.57,15.53,6.97,15.53,15.57Z"/>
  <ellipse class="cls-14" cx="463.13" cy="365.07" rx="16.54" ry="16.58"/>
  <ellipse class="cls-14" cx="427.68" cy="335.73" rx="17.56" ry="17.6"/>
  <ellipse class="cls-14" cx="420.49" cy="290.63" rx="18.34" ry="18.38"/>
  <ellipse class="cls-14" cx="442.95" cy="251.15" rx="18.96" ry="19"/>
  <ellipse class="cls-14" cx="486.12" cy="235.55" rx="20.66" ry="20.7"/>
  <path class="cls-14" d="M558.51,335.37c0,8.3-6.72,15.03-15,15.03s-15-6.73-15-15.03,6.72-15.03,15-15.03,15,6.73,15,15.03Z"/>
  <ellipse class="cls-14" cx="551.54" cy="290.13" rx="13.92" ry="13.95"/>
  <ellipse class="cls-14" cx="528.38" cy="250.63" rx="12.72" ry="12.75"/>
  <g class="cls-22">
    <path class="cls-6" d="M524.77,365.07c0,8.6-6.95,15.56-15.53,15.56s-15.53-6.97-15.53-15.56,6.95-15.57,15.53-15.57,15.53,6.97,15.53,15.57Z"/>
  </g>
  <g class="cls-25">
    <ellipse class="cls-6" cx="463.13" cy="365.07" rx="16.54" ry="16.58"/>
  </g>
  <g class="cls-18">
    <ellipse class="cls-6" cx="427.68" cy="335.73" rx="17.56" ry="17.6"/>
  </g>
  <g class="cls-20">
    <ellipse class="cls-6" cx="420.49" cy="290.63" rx="18.34" ry="18.38"/>
  </g>
  <g class="cls-23">
    <ellipse class="cls-6" cx="442.95" cy="251.15" rx="18.96" ry="19"/>
  </g>
  <ellipse class="cls-6" cx="486.12" cy="235.55" rx="20.66" ry="20.7"/>
  <g class="cls-26">
    <path class="cls-2" d="M558.51,335.37c0,8.3-6.72,15.03-15,15.03s-15-6.73-15-15.03,6.72-15.03,15-15.03,15,6.73,15,15.03Z"/>
  </g>
  <ellipse class="cls-17" cx="551.54" cy="290.13" rx="13.92" ry="13.95"/>
  <ellipse class="cls-17" cx="528.38" cy="250.63" rx="12.72" ry="12.75"/>
  <g>
    <g>
      <path class="cls-1" d="M436.58,513.9c0-3.2,2.43-5.55,5.72-5.55,1.59,0,3.03.53,3.99,1.59l-.73.73c-.89-.91-1.98-1.29-3.23-1.29-2.64,0-4.62,1.93-4.62,4.52s1.98,4.52,4.62,4.52c1.25,0,2.34-.39,3.23-1.31l.73.73c-.97,1.06-2.4,1.61-4.01,1.61-3.27,0-5.71-2.36-5.71-5.55Z"/>
      <path class="cls-1" d="M457.88,508.44v10.91h-1.14v-5.04h-6.83v5.04h-1.15v-10.91h1.15v4.87h6.83v-4.87h1.14Z"/>
      <path class="cls-1" d="M469.16,518.36v1h-7.72v-10.91h7.49v1h-6.33v3.88h5.65v.98h-5.65v4.05h6.57Z"/>
      <path class="cls-1" d="M470.84,513.9c0-3.2,2.43-5.55,5.72-5.55,1.59,0,3.02.53,3.99,1.59l-.73.73c-.89-.91-1.98-1.29-3.23-1.29-2.64,0-4.62,1.93-4.62,4.52s1.98,4.52,4.62,4.52c1.25,0,2.34-.39,3.23-1.31l.73.73c-.97,1.06-2.4,1.61-4.01,1.61-3.27,0-5.71-2.36-5.71-5.55Z"/>
      <path class="cls-1" d="M486.4,514.22l-2.23,2.26v2.87h-1.15v-10.91h1.15v6.6l6.41-6.6h1.33l-4.73,4.94,5.05,5.97h-1.37l-4.46-5.13Z"/>
      <path class="cls-1" d="M494.1,508.44h1.15v10.91h-1.15v-10.91Z"/>
      <path class="cls-1" d="M507.93,508.44v10.91h-.95l-7.02-8.85v8.85h-1.15v-10.91h.95l7.03,8.86v-8.86h1.14Z"/>
      <path class="cls-1" d="M519.17,513.9h1.11v4.16c-1.03.92-2.5,1.39-4.01,1.39-3.32,0-5.75-2.36-5.75-5.55s2.43-5.55,5.77-5.55c1.65,0,3.09.53,4.05,1.57l-.72.73c-.92-.91-2.01-1.28-3.29-1.28-2.7,0-4.68,1.92-4.68,4.52s1.98,4.52,4.66,4.52c1.05,0,2.01-.23,2.85-.84v-3.68Z"/>
      <path class="cls-1" d="M522.74,518.57c0-.48.37-.84.83-.84s.84.36.84.84-.39.86-.84.86-.83-.37-.83-.86Z"/>
      <path class="cls-1" d="M526.05,518.57c0-.48.37-.84.83-.84s.84.36.84.84-.39.86-.84.86-.83-.37-.83-.86Z"/>
      <path class="cls-1" d="M529.35,518.57c0-.48.37-.84.83-.84s.84.36.84.84-.39.86-.84.86-.83-.37-.83-.86Z"/>
    </g>
    <g>
      <g>
        <path class="cls-9" d="M389.95,445.29h187.89c6.19,0,11.22,5.03,11.22,11.22v19.32c0,6.19-5.03,11.22-11.22,11.22h-187.89c-6.19,0-11.22-5.03-11.22-11.22v-19.32c0-6.19,5.03-11.22,11.22-11.22Z"/>
        <path class="cls-5" d="M389.95,445.29h94.47c6.19,0,11.22,5.03,11.22,11.22v19.32c0,6.19-5.03,11.22-11.22,11.22h-94.47c-6.19,0-11.22-5.03-11.22-11.22v-19.32c0-6.19,5.03-11.22,11.22-11.22Z"/>
        <g>
          <path class="cls-8" d="M545.94,469.22c0,2.16-1.5,3.83-4.53,3.83-1.89,0-3.64-.7-4.55-1.74l.48-.72c.78.91,2.31,1.59,4.05,1.59,2.39,0,3.61-1.2,3.61-2.92,0-1.85-1.13-2.98-4.64-2.98h-2.63l.68-6.27h6.86v.85h-6.07l-.5,4.57h1.85c3.94,0,5.38,1.5,5.38,3.79Z"/>
          <path class="cls-8" d="M556.17,469.22c0,2.16-1.5,3.83-4.53,3.83-1.88,0-3.64-.7-4.55-1.74l.48-.72c.78.91,2.31,1.59,4.05,1.59,2.39,0,3.61-1.2,3.61-2.92,0-1.85-1.13-2.98-4.64-2.98h-2.63l.68-6.27h6.86v.85h-6.07l-.5,4.57h1.85c3.94,0,5.38,1.5,5.38,3.79Z"/>
          <path class="cls-8" d="M557.58,463.44c0-2.11,1.16-3.49,2.85-3.49s2.87,1.39,2.87,3.49-1.18,3.49-2.87,3.49-2.85-1.39-2.85-3.49ZM562.59,463.44c0-1.79-.87-2.86-2.16-2.86s-2.14,1.09-2.14,2.86.87,2.86,2.14,2.86,2.16-1.07,2.16-2.86ZM568.32,460.02h.8l-8.84,12.94h-.79l8.84-12.94ZM565.31,469.54c0-2.11,1.18-3.49,2.87-3.49s2.85,1.39,2.85,3.49-1.16,3.49-2.85,3.49-2.87-1.39-2.87-3.49ZM570.32,469.54c0-1.77-.87-2.86-2.14-2.86s-2.16,1.07-2.16,2.86.87,2.87,2.16,2.87,2.14-1.09,2.14-2.87Z"/>
        </g>
      </g>
      <g class="cls-21">
        <polygon class="cls-13" points="429.58 445.29 413.86 486.56 425.41 486.56 440.07 445.29 429.58 445.29"/>
      </g>
      <g class="cls-21">
        <polygon class="cls-13" points="457.94 445.29 442.21 486.56 453.76 486.56 468.42 445.29 457.94 445.29"/>
      </g>
      <g class="cls-21">
        <path class="cls-13" d="M485.71,448.39l-14.64,38.41h6.88c1.9-.25,5.3-1.76,5.3-1.76l10.09-28.41c-1.89-3.46-4.45-6.19-7.63-8.24Z"/>
      </g>
      <g class="cls-21">
        <path class="cls-13" d="M402.03,445.29l-14.46,37.94c2.93,1.95,6.35,3.07,10.29,3.32l14.65-41.26h-10.48Z"/>
      </g>
      <path class="cls-1" d="M569.35,487.06c0-.1,1.67.05,4.71-.68,2.96-.74,7.49-2.68,11.03-7.48,1.76-2.36,3.13-5.45,3.58-9.01.21-1.76.21-3.67.13-5.61-.04-1.94-.45-3.94-1.17-5.9-1.39-3.92-4.29-7.65-8.37-10.05-2.03-1.2-4.34-2.06-6.8-2.45-2.45-.4-5.06-.22-7.72-.25-42.58.03-101.36.08-166.28.13-1.99.03-3.95.33-5.84.9-1.88.6-3.64,1.51-5.25,2.62-3.19,2.26-5.7,5.47-6.99,9.11-2.32,7.23-1.57,15.96,3.53,21.57,2.45,2.83,5.71,4.89,9.24,5.9,3.52,1.07,7.28.69,10.97.76,7.36,0,14.57.01,21.61.02,28.13.04,53.47.07,74.76.1,21.26.06,38.47.11,50.4.15,5.93.04,10.54.07,13.7.09,1.55.02,2.73.03,3.56.05.8.02,1.21.05,1.21.05,0,0-.41.03-1.21.05-.83.01-2.02.03-3.56.05-3.16.02-7.77.05-13.7.09-11.93.03-29.14.08-50.4.15-21.29.03-46.62.06-74.76.1-7.03,0-14.24.01-21.61.02-1.84,0-3.69,0-5.55,0-1.89-.06-3.82-.22-5.66-.79-3.7-1.05-7.11-3.2-9.67-6.16-2.58-2.94-4.28-6.69-4.77-10.65-.22-2-.22-3.94-.13-5.93.07-2,.48-4,1.19-5.9,1.35-3.82,3.98-7.18,7.31-9.55,1.68-1.17,3.53-2.11,5.5-2.74,1.98-.6,4.04-.91,6.12-.95,64.92.05,123.7.1,166.28.13,2.65.04,5.26-.13,7.82.29,2.54.41,4.92,1.31,7,2.56,4.19,2.49,7.15,6.34,8.55,10.38,2.51,8.18,1.03,16.17-2.73,20.9-3.65,4.86-8.27,6.76-11.27,7.45-.76.22-1.45.28-2.04.37-.59.1-1.09.11-1.49.12-.8.03-1.22.01-1.22.01Z"/>
    </g>
  </g>
  <g>
    <path class="cls-10" d="M399.08,674.93v14.07c0,1.22-1.34,1.96-2.37,1.31l-11.06-7.03c-.96-.61-.96-2.01,0-2.61l11.06-7.03c1.03-.65,2.37.09,2.37,1.31Z"/>
    <path class="cls-10" d="M489.97,681.83c0,5.37-4.34,9.72-9.7,9.72s-9.7-4.35-9.7-9.72,4.34-9.72,9.7-9.72,9.7,4.35,9.7,9.72Z"/>
    <path class="cls-10" d="M561.46,673.38h14.15c1.03,0,1.87.84,1.87,1.87v14.19c0,1.03-.84,1.87-1.87,1.87h-14.15c-1.03,0-1.87-.84-1.87-1.87v-14.19c0-1.03.84-1.87,1.87-1.87Z"/>
  </g>
  <g>
    <g>
      <g>
        <path class="cls-1" d="M780.32,443.32c.81-7.08,1.59-14.2,1.17-21.31-.42-7.11-2.09-14.28-5.85-20.33-.57-.92-5.06-6.94-6.09-6.62-.74.23,2.46,6.04,2.21,6.77-2.37,6.98-1.84,14.68.2,21.76,2.04,7.08,4.85,13.25,8.36,19.73"/>
        <path class="cls-16" d="M749,489.95c-1.05-4.92-1.9-8.8-1.93-8.8,0,0-17.27,1.72-21.77-14.82-2.18-7.99-5.32-24.81-7.98-40.07-2.87-16.4,7.35-32.24,23.46-36.42l1.6-.41c17.53-3.46,30.26,9.49,33.24,27.11l12.38,61.29-27.2,28.86-11.79-16.74Z"/>
        <path class="cls-15" d="M747.06,481.16s10.62-2.1,19.95-11.99c0,0-2,13.66-18.95,16.46l-1.01-4.47Z"/>
        <path class="cls-1" d="M725.89,439.39c.28,1.26,1.58,2.07,2.9,1.8,1.32-.27,2.17-1.51,1.89-2.77-.28-1.26-1.58-2.07-2.9-1.8-1.32.27-2.17,1.51-1.89,2.77Z"/>
        <path class="cls-1" d="M722.64,432.23c.37.23,1.82-1.56,4.38-2.22,2.54-.69,4.75.14,4.95-.25.1-.17-.34-.65-1.31-1.04-.96-.38-2.47-.6-4.06-.18-1.59.42-2.77,1.35-3.38,2.15-.63.81-.75,1.43-.57,1.53Z"/>
        <path class="cls-1" d="M749.04,434.78c.28,1.26,1.58,2.07,2.9,1.8,1.32-.27,2.17-1.51,1.89-2.77-.28-1.26-1.58-2.07-2.9-1.8-1.32.27-2.17,1.51-1.89,2.77Z"/>
        <path class="cls-1" d="M747.89,426.79c.37.23,1.83-1.56,4.38-2.21,2.54-.69,4.75.14,4.95-.25.1-.17-.34-.65-1.31-1.04-.95-.38-2.47-.6-4.06-.19-1.59.42-2.77,1.35-3.38,2.15-.63.8-.75,1.43-.57,1.53Z"/>
        <path class="cls-1" d="M743.82,448.76c-.03-.15-1.68-.01-4.34.33-.67.1-1.32.13-1.54-.28-.27-.43-.18-1.2-.07-2.04.2-1.73.42-3.55.64-5.46.85-7.75,1.28-14.06.97-14.09-.31-.03-1.25,6.23-2.1,13.98-.19,1.91-.38,3.73-.55,5.47-.05.8-.26,1.75.32,2.64.3.44.87.67,1.32.67.45.02.82-.07,1.15-.13,2.62-.53,4.23-.93,4.2-1.08Z"/>
        <path class="cls-1" d="M751.78,448.58c-.42.08.29,2.85-1.57,5.43-1.85,2.58-4.89,3.04-4.81,3.43,0,.18.8.37,2.05.08,1.23-.27,2.92-1.13,4.05-2.71,1.13-1.58,1.34-3.35,1.14-4.51-.19-1.18-.68-1.79-.87-1.73Z"/>
        <path class="cls-1" d="M745.35,416.4c.43.63,2.89-.36,5.98-.77,3.08-.48,5.72-.23,5.95-.95.1-.34-.49-.89-1.64-1.31-1.14-.42-2.85-.66-4.7-.39-1.85.27-3.42.98-4.39,1.71-.98.73-1.4,1.42-1.2,1.72Z"/>
        <path class="cls-1" d="M721.5,423.48c.6.46,2.2-.59,4.31-1.17,2.08-.65,4-.62,4.26-1.33.1-.34-.33-.85-1.25-1.19-.91-.35-2.32-.46-3.76-.04-1.44.42-2.56,1.27-3.14,2.06-.59.79-.68,1.45-.41,1.68Z"/>
        <path class="cls-16" d="M777.44,429.18c.25-.2,10.53-6.33,13.11,5.11,2.58,11.44-9.44,11.67-9.53,11.34-.09-.32-3.57-16.46-3.57-16.46Z"/>
        <path class="cls-15" d="M783.53,440.51s.23.09.6.17c.36.08.95.05,1.5-.3,1.11-.72,1.69-2.86,1.29-4.94-.21-1.05-.65-1.99-1.2-2.73-.54-.76-1.21-1.22-1.84-1.19-.64,0-.99.46-1.05.81-.08.35.04.57-.01.6-.03.04-.29-.14-.3-.63,0-.24.07-.54.29-.82.22-.29.6-.49,1.04-.54.9-.14,1.87.49,2.48,1.3.66.8,1.18,1.86,1.41,3.03.45,2.32-.25,4.75-1.79,5.6-.76.39-1.48.3-1.89.11-.42-.2-.54-.45-.5-.47Z"/>
        <path class="cls-1" d="M720.62,405.67c-2.08-.62,2.19-7.83,6.31-10.89,6.22-4.61,16.32-8.81,23.06-8.38,8.12.52,15.29,2.95,20.64,9.08,5.34,6.13,8.54,13.93,10.03,21.93.46,2.44.75,5.02-.1,7.35-1.05,2.88-3.78,5.14-2.89,8.61.33,1.27.24,2.64-.43,3.76-1.62,2.68-4.63,1.14-6.27-.7-3.49-3.95-4.93-9.25-6.26-14.34-.95-3.62-1.9-7.32-1.63-11.06.15-2.03.66-4.03.69-6.07.04-2.04-.5-4.22-2.05-5.55-.25-.22-.65-.47-1.13-.74-3.86-2.14-8.59-2.01-12.35.3-5.96,3.68-16.25,9.47-19.6,7.9-4.82-2.26-6.26-4.1-6.26-4.1l-1.76,2.9Z"/>
      </g>
      <path class="cls-14" d="M747.51,380.01c.79-.09,20.19-.58,28.23,11.92,8.05,12.51,7.76,17.05,7.76,17.05,0,0,1.23.38,2.33,1.16.99.7.96,5.29-1.55,5.41-19.93-3.4-41.35,1.17-64.8,7.89l-18.16,4.35c-4.92,1.87-7.04.98-5.22-.84,1.39-1.39,14.31-10.8,14.31-10.8l2.3-2.78,4.85-12.25s-1.29-1.21.24-2.87c1.52-1.66,14.2-16.54,29.7-18.25Z"/>
      <path class="cls-1" d="M712.73,413.39s.25-.05.71-.17c.55-.15,1.21-.33,2.01-.56,1.73-.52,4.28-1.14,7.43-1.86,6.31-1.37,15.17-2.8,25.04-3.15,9.87-.42,18.81.09,25.26.55,3.23.22,5.84.46,7.64.61.83.07,1.51.12,2.08.17.48.04.73.04.73.04,0,0-.25-.05-.72-.1-.56-.06-1.25-.14-2.07-.23-1.8-.19-4.41-.46-7.63-.71-6.45-.52-15.4-1.06-25.29-.64-9.89.35-18.76,1.81-25.07,3.24-6.31,1.47-10.1,2.81-10.1,2.81Z"/>
      <g class="cls-24">
        <path class="cls-4" d="M766.31,383.83s-20.59,1.81-28.36,8.31c.3-.26.6-.52.9-.78-2.48,1.93-4.96,3.87-7.44,5.8-1.26.98-2.76,2.02-4.3,1.64,0,0,3.45-5.15,11.02-10.04,7.57-4.89,20.4-9.42,28.19-4.93Z"/>
      </g>
      <path class="cls-1" d="M766.63,383.86s-.71-.33-2.07-.71c-1.35-.38-3.36-.82-5.88-.92-2.52-.12-5.55.11-8.78.93-3.22.81-6.73,2.18-9.75,4.61-1.52,1.19-2.86,2.52-4.14,3.79-1.26,1.3-2.53,2.49-3.63,3.75-1.09,1.25-2.08,2.49-3.22,3.4-1.11.97-2.42,1.41-3.63,1.74-4.84,1.3-8.08,1.05-7.94.68,0-.01.11.19.49.29.36.08.91.15,1.62.12,1.41-.04,3.45-.26,5.89-.88,1.2-.31,2.59-.76,3.73-1.75,1.18-.93,2.18-2.18,3.28-3.42,1.09-1.23,2.38-2.43,3.63-3.72,1.28-1.27,2.61-2.59,4.11-3.76,2.98-2.39,6.44-3.75,9.63-4.57,3.2-.83,6.2-1.08,8.7-.99,2.5.07,4.5.48,5.86.82.68.17,1.2.33,1.55.44.35.11.54.15.54.15Z"/>
      <g class="cls-24">
        <path class="cls-4" d="M778.91,397.21c-3.55.87-6.47.63-10.19.76-3.96.13-7.84.42-11.8.36-3-.05-6.5.12-8.85-1.45.11,1.54.88,2.76,2.22,3.52,1.34.76,5.15,1.11,6.69,1.13,8.78.16,14.85.22,23.53-1.35-.3-.86-1.6-2.97-1.6-2.97"/>
      </g>
      <path class="cls-14" d="M774.8,390.59c2.49.41,4.04.71,4.59,2.61.46,1.58.63,3.61-.87,4.28-.46.21-.97.23-1.47.26-8.57.42-17.15.85-25.72,1.27-.87.04-1.82.06-2.51-.47-1.06-.82-.89-2.58,0-3.58.89-1,2.24-1.43,3.54-1.78,7.34-2,14.84-2.61,22.46-2.59"/>
      <path class="cls-1" d="M749.28,398.8s-.5-.16-.93-.9c-.41-.69-.66-2.11.22-3.34.93-1.18,2.69-1.95,4.65-2.34,1.99-.4,4.18-.81,6.5-1.16,4.63-.72,8.87-.97,11.93-.87,1.53.03,2.77.14,3.62.22.35.04.68.07.98.1.23.02.34.02.35.01,0-.01-.11-.04-.34-.08-.31-.05-.63-.1-.98-.16-.85-.11-2.09-.26-3.63-.32-3.08-.16-7.35.06-11.99.78-2.32.35-4.52.77-6.51,1.19-1.99.41-3.79,1.2-4.77,2.49-.92,1.35-.61,2.83-.15,3.54.24.37.51.59.71.71.21.1.32.14.32.13Z"/>
      <polygon class="cls-13" points="716.06 404.98 731.37 400.75 731.17 405.42 714.34 409.31 716.06 404.98"/>
      <path class="cls-1" d="M742.81,412.74c0-.09-7.12.67-15.88,1.7-8.76,1.02-15.86,1.92-15.85,2.01,0,.09,7.12-.67,15.89-1.7,8.76-1.02,15.86-1.92,15.85-2.01Z"/>
    </g>
    <g>
      <path class="cls-10" d="M698.6,506.69l15.56,37.63,6.84-28.92c1.48-5.55,4.15-10.78,8.12-14.93,1.38-1.44,2.87-2.78,4.47-3.99h0l12.19,55.8s-10.3,31.77-34.89,32.5c-7.15.21-18-4.31-21.41-12.26-1.68-3.93-23.55-55.76-23.55-55.76l32.68-10.06Z"/>
      <polygon class="cls-1" points="705.23 536.78 706.11 531.22 687.83 515.7 684.59 519.35 674.16 531.29 713.55 563.24 723.05 551.83 705.23 536.78"/>
      <path class="cls-10" d="M852.92,606.5c.52-7.76-8.88-96.47-8.88-96.47l-20.17-29.81-38.48-6.78c-.59,4.69-3.6,16.93-19.47,21.45-8.17,2.32-17.05-5.82-17.05-5.82l-15.28,7.42,5.81,41.55,7.5,47.43,106.42,30.25s-.91-1.45-.4-9.22Z"/>
      <polygon class="cls-5" points="751.66 590.36 746.89 533.17 802.55 521.89 852.56 595.93 854.03 621.22 777.11 618.81 751.66 590.36"/>
      <path class="cls-1" d="M737.3,516.04c.06-.01.28.95.64,2.69.36,1.74.81,4.27,1.32,7.4,1.03,6.26,2.17,14.96,3.29,24.57,1.12,9.61,2.16,18.31,3.03,24.59.42,3.02.77,5.52,1.03,7.44.25,1.76.35,2.73.29,2.74-.06.01-.28-.95-.64-2.69-.36-1.74-.81-4.27-1.32-7.4-1.03-6.26-2.17-14.96-3.29-24.58-1.12-9.61-2.16-18.3-3.03-24.58-.42-3.02-.77-5.52-1.03-7.44-.25-1.76-.35-2.73-.29-2.74Z"/>
      <path class="cls-16" d="M705.24,536.68s7.47.94,10.09,2.3c2.63,1.36,10.24,6.42,10.24,6.42l15.39,2.91-3.68,25.4-10.29-5.1-22.68,2.25s-4.94-1.13-4.94-4.66c0,0-3.99-2.26-4.4-6.65,0,0-6.07-7.96-6.62-9.5s2.54-5.18,2.54-5.18c0,0,6.47,5.49,10.41,6.35,3.94.86,7.49-.69,7.83-3.22.69-5.13-3.9-11.31-3.9-11.31Z"/>
      <g class="cls-24">
        <path class="cls-4" d="M746.05,580.49s51.63,18.51,68.95,17.41c14.67-.93,21.89-7.81,23.06-17.41,1.16-9.6,2.78-50.41,2.78-50.41l-27.7,48.03-67.36-2.12.27,4.5Z"/>
      </g>
      <g>
        <path class="cls-10" d="M829.86,577.9c3.71-10.61,7.79-31.02,7.79-31.02l6.44-33.99c.15-8.85-2.7-17.58-8.37-24.37-4.23-5.06-10.15-9.39-18.02-9.36-16.71.07-16.12,30.87-16.12,30.87l-4.55,44.09-65.37-10.66-4.15,31.43,76.88,16.59c6.52,1.54,13.48.35,18.86-3.63,3.07-2.27,5.11-5.65,6.61-9.95Z"/>
        <path class="cls-1" d="M819.54,481.88c0,.15-1.33.21-3.37.76-2.03.54-4.77,1.7-7.2,3.79-2.43,2.1-3.97,4.64-4.8,6.57-.84,1.94-1.1,3.25-1.24,3.22-.1-.01-.07-1.38.65-3.46.7-2.06,2.24-4.8,4.8-7.02,2.56-2.21,5.5-3.33,7.64-3.73,2.16-.41,3.52-.24,3.52-.14Z"/>
        <path class="cls-1" d="M844.09,512.89s-.02.28-.11.82c-.1.58-.23,1.37-.41,2.39-.38,2.14-.94,5.22-1.65,9.16-.73,3.99-1.63,8.85-2.67,14.49-1.01,5.65-2.26,12.08-3.89,19.12-.81,3.52-1.7,7.21-2.72,11.02-.51,1.91-1.07,3.85-1.68,5.81-.63,1.95-1.28,3.97-2.24,5.9-.95,1.93-2.18,3.8-3.82,5.36-1.64,1.56-3.61,2.73-5.71,3.68-4.23,1.84-9.15,2.38-13.92,1.46-18.69-4.02-39.23-8.44-60.79-13.07-5.77-1.25-11.47-2.48-17.08-3.69l-.4-.09.05-.41c1.44-10.85,2.83-21.37,4.17-31.43l.06-.44.43.07c25.22,4.16,47.61,7.85,65.35,10.77l-.36.27c1.47-13.67,2.65-24.68,3.47-32.31.42-3.76.75-6.69.98-8.72.12-.96.21-1.71.28-2.26.07-.51.12-.77.12-.77,0,0,0,.26-.04.77-.05.55-.11,1.3-.19,2.27-.19,2.04-.47,4.97-.82,8.74-.76,7.64-1.84,18.66-3.2,32.34l-.03.33-.33-.05c-17.76-2.86-40.16-6.47-65.39-10.54l.49-.37c-1.32,10.07-2.7,20.58-4.13,31.44l-.35-.49c5.61,1.21,11.31,2.44,17.08,3.68,21.55,4.66,42.08,9.1,60.75,13.14,4.61.9,9.36.39,13.45-1.37,2.02-.9,3.94-2.05,5.49-3.51,1.56-1.47,2.75-3.26,3.68-5.13.95-1.87,1.59-3.84,2.23-5.79.61-1.95,1.18-3.87,1.69-5.78,1.04-3.8,1.95-7.47,2.77-10.99,1.67-7.03,2.96-13.43,4.02-19.07,1.1-5.62,2.04-10.48,2.81-14.46.78-3.93,1.39-7,1.81-9.13.21-1.01.37-1.8.49-2.37.12-.53.2-.8.2-.8Z"/>
        <path class="cls-1" d="M804.63,565.29c-.21.14-2.16-2.45-4.36-5.77-1.11-1.64-2.05-3.25-2.73-4.28-.7-1.06-1.52-1.09-1.53-1.21,0-.05.21-.16.61-.09.41.07.94.38,1.4.89.9,1.05,1.86,2.52,2.99,4.19,2.2,3.32,3.82,6.13,3.62,6.27Z"/>
      </g>
      <path class="cls-5" d="M793.45,524.92s-11.64-29.48.5-43.91c2.84-3.37,7.19-5.1,11.58-4.76,3.83.29,8.91,1.04,12.17,2.91,0,0-10.33-1.85-14.64,2.72-3.17,3.36-10.8,14.32-2.75,40.46l-6.86,2.58Z"/>
      <path class="cls-5" d="M747.1,534.55l-11.86-38.87c1.18-2.72,4.66-3.79,7.13-3.35l11.46,42.22h-6.73Z"/>
      <path class="cls-3" d="M708.45,548.29c-.15.19-6.58-4.65-14.36-10.81-7.78-6.17-13.96-11.32-13.81-11.52.15-.19,6.58,4.65,14.36,10.81,7.78,6.16,13.96,11.32,13.81,11.51Z"/>
      <polygon class="cls-3" points="677.54 527.42 674 524.16 675.7 522.09 679.79 524.84 677.54 527.42"/>
      <g>
        <path class="cls-16" d="M644.33,476.6c-.82-3.2,1.03-6.47,4.2-7.4,6.4-1.88,16.3-4.24,18.99-1.78,4.08,3.72,13.83,12.77,13.83,12.77l13.47,27.98-21.82,6.42-6.19-21.27s-9.93.53-9.05-4.79c0,0-4.97-1.95-4.26-4.97.71-3.02,4.79-3.72,4.79-3.72l-.89-5.32-13.03,2.28-.05-.2Z"/>
        <path class="cls-3" d="M655.05,483.98h-10.98v-12.96h10.98c3.58,0,6.48,2.9,6.48,6.48h0c0,3.58-2.9,6.48-6.48,6.48Z"/>
        <g>
          <path class="cls-16" d="M663.42,477.28l-16.5-4.26s-4.43-1.24-2.13,3.55c2.31,4.79,9.22,3.72,11.88,6.56,2.66,2.84,4.17,7.63,15.17,9.4"/>
          <path class="cls-15" d="M671.85,492.53c0,.06-.78-.01-2.18-.24-1.38-.27-3.4-.72-5.71-1.82-1.14-.57-2.35-1.32-3.47-2.33-1.14-1-2.14-2.28-3.15-3.58-1.73-2.97-5.78-2.82-9.36-4.45-.9-.43-1.75-.99-2.45-1.7-.68-.74-1.16-1.63-1.49-2.5-.15-.46-.29-.92-.33-1.43-.02-.51.11-1.14.59-1.54.99-.7,1.99-.46,2.84-.28,3.15.85,6.03,1.63,8.51,2.3,2.28.65,4.19,1.19,5.72,1.62,1.35.4,2.08.65,2.07.71-.02.06-.78-.08-2.15-.38-1.55-.36-3.48-.81-5.79-1.35-2.5-.62-5.39-1.33-8.56-2.11-.71-.19-1.63-.24-2.06.13-.43.34-.3,1.24,0,2.01.32.81.73,1.55,1.32,2.2.61.62,1.36,1.11,2.18,1.51,1.67.77,3.51,1.13,5.26,1.7.87.28,1.75.61,2.52,1.15.8.54,1.34,1.26,1.85,1.91,1,1.34,1.93,2.57,3,3.54,1.05.99,2.18,1.73,3.26,2.32,4.45,2.19,7.67,2.4,7.6,2.63Z"/>
        </g>
        <path class="cls-3" d="M670.87,572.93c-3.67,0-7.44-2.14-9.58-5.7-2.55-4.24-2.81-10.17-.68-15.11.14-.32.29-.63.44-.94-.06-.13-.12-.27-.17-.4-1.15-2.86-1.35-6.01-1.54-9.05-.63-10.09-1.2-19.48-1.77-28.86-.57-9.4-1.15-18.8-1.78-28.92l.86-.05c.63,10.11,1.2,19.52,1.78,28.92.57,9.38,1.14,18.77,1.77,28.86.18,2.89.37,5.87,1.39,8.55,1.33-2.16,3.08-3.6,4.98-4.06,1.42-.34,3.04-.01,4.33.9,1.25.88,2.01,2.16,2.16,3.6.15,1.51-.42,3.04-1.58,4.2-1.16,1.16-2.71,1.78-4.18,1.63-2.6-.25-4.57-2.23-5.76-4.35-.05.1-.09.21-.14.31-2.02,4.69-1.78,10.32.63,14.32,2.52,4.2,7.48,6.28,11.53,4.83,4.02-1.44,7.15-6.29,7.61-11.8.38-4.51-.72-9.42-3.38-15.01-1.1-2.31-2.36-4.57-3.59-6.75-1.26-2.24-2.55-4.56-3.68-6.94-.81-1.72-1.56-3.59-1.57-5.57,0-1.87.88-4.21,2.8-4.94.91-.35,2.01-.15,2.87.51.87.66,1.33,1.66,1.23,2.67l-.86-.08c.07-.71-.27-1.42-.9-1.9-.63-.48-1.41-.63-2.04-.39-1.48.56-2.25,2.5-2.25,4.13,0,1.81.72,3.57,1.48,5.2,1.11,2.36,2.4,4.66,3.65,6.89,1.23,2.2,2.51,4.47,3.62,6.81,2.72,5.73,3.85,10.78,3.46,15.45-.42,4.93-3.11,10.72-8.18,12.54-.96.34-1.97.51-2.98.51ZM662,551.21c1.24,2.52,3.28,4.23,5.37,4.43,1.2.12,2.51-.4,3.48-1.38.97-.97,1.46-2.25,1.33-3.5-.12-1.19-.76-2.25-1.8-2.99-1.08-.77-2.44-1.05-3.62-.76-1.83.45-3.52,1.95-4.76,4.2Z"/>
      </g>
    </g>
    <g>
      <path class="cls-3" d="M771.17,731.41l39.84-13.63s27.23,35.92,34.84,34.12l-23.65-78.2-62.95,18.68,11.91,39.02Z"/>
      <path class="cls-10" d="M800.31,694.63c-.04-1.64,1.34-3.2,2.98-3.31,1.64-.11,3.23,1.28,3.31,2.92.07,1.64-1.53,3.56-3.17,3.49-1.64-.07-3.42-1.81-3.1-3.42"/>
      <path class="cls-10" d="M823.83,673.15l-6.1,1.8,23.22,75.06s2.57,3.02,4.9,1.89l-22.02-78.75Z"/>
      <path class="cls-1" d="M810.99,719.17c.38-.13-.03-2.09.63-4.34.6-2.27,1.96-3.74,1.7-4.04-.18-.33-2.29.93-3.04,3.67-.78,2.73.38,4.9.7,4.71Z"/>
      <path class="cls-1" d="M816.87,726.35c.4-.02.55-1.87,1.77-3.66,1.17-1.82,2.82-2.68,2.69-3.05-.05-.38-2.36.03-3.84,2.28-1.5,2.23-.98,4.53-.61,4.43Z"/>
      <path class="cls-1" d="M828.09,728.04c-.02-.37-2.09-.33-3.89,1.29-1.81,1.6-2.09,3.65-1.72,3.72.38.12,1.15-1.38,2.64-2.68,1.46-1.34,3.04-1.93,2.96-2.32Z"/>
      <path class="cls-1" d="M801.57,721.27c.3-.27-.76-1.86-1.26-4.06-.55-2.19-.33-4.09-.72-4.19-.34-.14-1.26,1.93-.63,4.52.61,2.59,2.37,4.01,2.61,3.74Z"/>
      <path class="cls-1" d="M766.32,625.18c-1.53-.42-69,71.95-70.54,83.92-1.53,11.96.92,22.39,8.89,29.14,7.97,6.75,98.75-15.33,98.75-15.33l-8.59-38.03,32.82-11.04-29.33-53.67-32.01,5.02Z"/>
      <g class="cls-24">
        <path class="cls-4" d="M750.36,641.22l-2.16,2.32s38.67,40.57,50.54,40.01l18.99-6.43-64.24-39.42-3.12,3.52Z"/>
      </g>
      <path class="cls-1" d="M795.07,685.86c.07.24-14.01,4.58-31.44,9.71-17.44,5.12-31.62,9.08-31.69,8.84-.07-.24,14-4.58,31.44-9.71,17.43-5.12,31.62-9.08,31.69-8.84Z"/>
      <path class="cls-3" d="M710.81,690.04l13.11,41.6s-37.88,27.3-36.21,35.23l81.58-22.53-17.77-65.66-40.71,11.36Z"/>
      <path class="cls-10" d="M748.17,721.14c1.7,0,3.28,1.47,3.35,3.17.07,1.7-1.41,3.32-3.11,3.35-1.7.03-3.65-1.68-3.53-3.37.12-1.69,1.96-3.5,3.62-3.13"/>
      <path class="cls-10" d="M769.82,746.04l-1.72-6.36-78.32,22.17s-3.2,2.58-2.08,5.03l82.11-20.83Z"/>
      <path class="cls-1" d="M722.48,731.59c.12.39,2.17.03,4.48.76,2.33.68,3.82,2.13,4.14,1.87.35-.18-.91-2.4-3.72-3.24-2.81-.87-5.09.27-4.9.61Z"/>
      <path class="cls-1" d="M714.9,737.5c.02.41,1.93.61,3.75,1.92,1.86,1.26,2.7,2.99,3.09,2.86.39-.04.02-2.45-2.27-4.04-2.28-1.61-4.67-1.13-4.57-.74Z"/>
      <path class="cls-1" d="M712.87,749.08c.39-.02.39-2.16-1.24-4.06-1.61-1.91-3.73-2.25-3.81-1.87-.13.39,1.4,1.23,2.71,2.81,1.35,1.55,1.92,3.2,2.33,3.13Z"/>
      <path class="cls-1" d="M720.55,721.78c.27.32,1.94-.74,4.24-1.21,2.28-.52,4.25-.24,4.36-.64.15-.35-1.97-1.35-4.66-.76-2.7.57-4.22,2.35-3.93,2.61Z"/>
      <g class="cls-24">
        <polygon class="cls-4" points="769.88 730.47 764.86 710.74 768.6 709 745.78 646.88 741.42 650.66 759.36 707.57 765.77 731.33 769.88 730.47"/>
      </g>
      <path class="cls-1" d="M716.02,576.68c-8.95-1.84-18.37.02-25.68,5.5-6.13,4.6-11.24,11.97-9.58,23.56,3.68,25.76,36.6,113.7,36.6,113.7l45.55-13.7c.26-.08.52-.83.37-.6-.37.6-23.11-72.66-22.54-71.8.61.92,45.97,37.52,64.82,44.25,19.37,6.92,38.53-1.36,47.75-14.26,4.42-6.18,4.73-33.3,0-47.63,0,0-131.46-37.27-133.92-38.19-.67-.25-1.92-.55-3.38-.85Z"/>
      <path class="cls-1" d="M714.16,603.48c14.59,9.71,24.61,25.99,26.71,43.39"/>
      <path class="cls-1" d="M855.11,662.45s-.17.3-.55.87c-.35.59-1,1.37-1.84,2.41-1.77,1.99-4.63,4.79-8.98,7.52-4.32,2.71-10.12,5.52-17.43,6.64-3.63.53-7.63.77-11.8.16-4.15-.55-8.55-1.67-12.73-3.82-2.16-.92-4.22-2.16-6.41-3.28-2.11-1.26-4.31-2.47-6.48-3.84-4.36-2.71-8.85-5.64-13.41-8.83-9.15-6.34-18.74-13.5-28.67-21.4-1.23-1-2.48-2-3.73-3.02l-1.86-1.56-.49-.45-.25-.23c.16.05-.43-.2.33.1.59-.63.17-.31.3-.38l.03.13.33,1.16c.96,3.11,1.94,6.27,2.93,9.46,2.02,6.38,4.09,12.92,6.2,19.6,4.26,13.36,8.71,27.31,13.31,41.74l.13.42-.42.13c-14.82,4.46-30.28,9.11-46.14,13.89l-.4.12-.15-.39c-2.94-7.89-6-16.29-9.05-24.81-6.61-18.51-12.89-36.64-18.43-54.33-2.78-8.84-5.36-17.58-7.43-26.27-.25-1.09-.54-2.16-.75-3.26-.2-1.1-.4-2.19-.6-3.28-.46-2.16-.65-4.4-.64-6.61.01-4.43,1.3-8.82,3.66-12.45,4.82-7.29,12.92-11.56,20.95-12.67,4.04-.58,8.12-.37,11.98.51.96.24,1.92.49,2.88.73.93.28,1.86.55,2.78.83,1.84.55,3.67,1.1,5.49,1.64,14.5,4.33,28.01,8.36,40.35,12.05,24.65,7.39,44.59,13.36,58.41,17.51,6.87,2.08,12.22,3.7,15.87,4.8,1.79.55,3.17.98,4.12,1.27.93.29,1.4.46,1.4.46,0,0-.49-.11-1.42-.37-.96-.27-2.34-.67-4.15-1.19-3.66-1.07-9.02-2.63-15.92-4.64-13.84-4.08-33.82-9.96-58.51-17.24-12.35-3.65-25.88-7.65-40.4-11.95-1.82-.54-3.65-1.08-5.49-1.63-.92-.27-1.85-.55-2.78-.82-.93-.23-1.85-.46-2.79-.7-3.76-.85-7.76-1.05-11.7-.48-7.83,1.09-15.74,5.3-20.37,12.34-2.27,3.51-3.51,7.72-3.51,12.02,0,2.15.17,4.3.64,6.45.2,1.08.4,2.16.6,3.24.21,1.08.5,2.16.75,3.24,2.06,8.65,4.65,17.37,7.43,26.2,5.55,17.67,11.83,35.79,18.44,54.29,3.05,8.51,6.11,16.92,9.04,24.8l-.55-.27c15.86-4.76,31.33-9.41,46.15-13.86l-.29.55c-4.59-14.44-9.02-28.39-13.27-41.76-2.1-6.69-4.16-13.23-6.17-19.62-.98-3.2-1.95-6.36-2.91-9.48l-.34-1.19-.04-.17c.13-.11-.32.13.29-.52.81.34.25.12.45.21l.2.18.41.37,1.85,1.55c1.25,1.01,2.48,2.02,3.71,3.02,9.9,7.91,19.46,15.09,28.58,21.45,4.54,3.2,9.01,6.13,13.35,8.85,2.16,1.37,4.35,2.59,6.45,3.85,2.17,1.11,4.22,2.36,6.36,3.28,4.14,2.15,8.45,3.26,12.56,3.83,4.12.63,8.07.41,11.67-.1,7.24-1.07,13.03-3.81,17.34-6.47,4.34-2.68,7.22-5.42,9.02-7.37.86-1.02,1.52-1.78,1.89-2.35.4-.55.61-.82.61-.82Z"/>
      <path class="cls-1" d="M719.93,613.18c.06-.1,1.54.62,3.79,2.05,2.24,1.43,5.21,3.63,8.17,6.44,2.95,2.81,5.28,5.7,6.76,7.91,1.49,2.21,2.19,3.71,2.1,3.76-.12.07-1.01-1.3-2.62-3.39-1.6-2.09-3.96-4.86-6.86-7.63-2.91-2.77-5.78-5.01-7.91-6.57-2.13-1.55-3.5-2.46-3.43-2.58Z"/>
      <path class="cls-1" d="M735.48,608.11c.11-.04.79,1.24,1.66,3.42.87,2.18,1.89,5.28,2.67,8.78.78,3.51,1.17,6.74,1.3,9.08.14,2.35.06,3.8-.05,3.8-.28.01-.57-5.77-2.13-12.69-1.52-6.93-3.71-12.29-3.45-12.4Z"/>
      <path class="cls-3" d="M836.23,606.31l16.65-4.8,10.86,1.97,5.17,18.15c5.08,16.06,4,25.27-6.63,32.32-3.13,2.07-6.09,3.2-8.24,2.29-7.54-3.17-17.8-49.93-17.8-49.93Z"/>
      <polygon class="cls-3" points="852.88 601.51 746.65 584.04 746.89 585.46 852.88 617.16 852.88 601.51"/>
    </g>
  </g>
  <g>
    <g>
      <g>
        <g>
          <path class="cls-3" d="M199.98,710.85l-10.45,36.67s33.28,23.07,32,30.04l-70.89-17.97,13.96-57.81,35.38,9.07Z"/>
          <path class="cls-10" d="M168.38,738.85c-1.47.03-2.8,1.36-2.83,2.84-.03,1.49,1.29,2.87,2.75,2.87,1.47,0,3.12-1.54,2.98-3.02-.14-1.48-1.77-3.02-3.19-2.66"/>
          <g class="cls-19">
            <path class="cls-13" d="M150.64,759.59l1.63-5.77,67.36,19.39s2.81,2.19,1.9,4.35l-70.89-17.97Z"/>
          </g>
          <path class="cls-1" d="M190.78,747.44c-.1.35-1.87.07-3.85.76-2,.64-3.25,1.94-3.54,1.72-.3-.15.73-2.12,3.15-2.92,2.41-.82,4.4.13,4.24.43Z"/>
          <path class="cls-1" d="M197.44,752.44c0,.36-1.65.58-3.19,1.76-1.58,1.14-2.27,2.67-2.61,2.57-.34-.03-.07-2.14,1.87-3.58,1.93-1.45,4-1.08,3.93-.75Z"/>
          <path class="cls-1" d="M199.44,762.53c-.33,0-.38-1.88.98-3.57,1.35-1.71,3.17-2.05,3.25-1.72.12.34-1.18,1.1-2.28,2.51-1.13,1.38-1.59,2.84-1.95,2.78Z"/>
          <path class="cls-1" d="M192.24,738.82c-.22.28-1.69-.6-3.68-.96-1.98-.4-3.67-.12-3.78-.47-.14-.3,1.67-1.23,4.01-.77,2.34.44,3.69,1.97,3.45,2.2Z"/>
        </g>
        <g>
          <path class="cls-3" d="M175.13,719.48l-1.65,38.13s37.7,14.5,38.07,21.58l-73.08-.58.16-59.51,36.5.39Z"/>
          <path class="cls-10" d="M150.91,754.22c-1.42.38-2.41,1.98-2.09,3.43.32,1.45,1.92,2.48,3.34,2.13,1.42-.35,2.67-2.24,2.19-3.65-.48-1.41-2.42-2.51-3.72-1.82"/>
          <g class="cls-19">
            <path class="cls-13" d="M138.48,778.61l.25-6,69.97,2.8s3.24,1.46,2.86,3.78l-73.08-.58Z"/>
          </g>
          <path class="cls-1" d="M174.67,757.24c-.01.36-1.8.51-3.56,1.66-1.79,1.1-2.71,2.66-3.04,2.52-.33-.07.22-2.23,2.38-3.58,2.15-1.37,4.3-.92,4.22-.59Z"/>
          <path class="cls-1" d="M182.31,760.52c.08.35-1.47.95-2.7,2.47-1.27,1.48-1.59,3.13-1.94,3.12-.34.05-.57-2.07.99-3.93,1.54-1.87,3.64-2.01,3.65-1.66Z"/>
          <path class="cls-1" d="M186.6,769.85c-.32.07-.81-1.74.12-3.71.92-1.98,2.61-2.75,2.76-2.45.2.3-.89,1.35-1.63,2.98-.78,1.61-.89,3.14-1.25,3.17Z"/>
          <path class="cls-1" d="M174.1,748.51c-.15.33-1.79-.18-3.8-.06-2.02.08-3.6.75-3.78.44-.2-.26,1.34-1.59,3.72-1.7,2.38-.13,4.04,1.03,3.87,1.32Z"/>
        </g>
        <g>
          <path class="cls-1" d="M129.92,440.48v30.15l7.99,117.45s-4.97,56.98-8.03,89.14c-2.65,27.93,1.68,76.57,1.68,76.57h46.51l16.64-162.22,10.33-101.17,17.97-46.05-93.1-3.87Z"/>
          <path class="cls-1" d="M244.18,440.48l4.49,122.42c-.31,22.97-6.64,65.86-14.86,87.27l-37.37,82.11-2.16,7.39-27.79-6.81,20.67-290.32,57.01-2.06Z"/>
        </g>
      </g>
      <path class="cls-3" d="M211.99,472.9s.03.25.05.73c.01.53.03,1.24.05,2.15.02,1.94.04,4.71.07,8.27.02,7.18-.01,17.57-.23,30.41-.23,12.84-.61,28.12-1.53,45.08-1.01,16.92-2.14,35.65-6.11,54.88-3.67,19.25-7.58,37.5-11.04,54.12-3.49,16.61-6.51,31.59-8.8,44.22-2.29,12.62-3.92,22.88-4.86,30-.53,3.55-.81,6.32-1.08,8.19-.12.9-.22,1.61-.29,2.13-.07.48-.11.72-.13.72-.02,0,0-.25.04-.73.05-.52.12-1.23.2-2.14.21-1.88.43-4.66.91-8.22.84-7.13,2.37-17.41,4.58-30.06,2.21-12.65,5.18-27.65,8.62-44.27,3.42-16.63,7.3-34.88,10.97-54.12,3.96-19.18,5.11-37.84,6.17-54.76.96-16.94,1.41-32.21,1.72-45.04.3-12.83.43-23.22.51-30.39.04-3.55.08-6.33.1-8.27.02-.91.03-1.62.04-2.15.01-.48.03-.73.04-.73Z"/>
    </g>
    <path class="cls-5" d="M270.56,409.19s1.03,3.44.69,7.04c-.34,3.61-.52,12.49-10.13,15.52-9.62,3.03-18.68-4.18-21.62-7.45-2.94-3.26-2.6-13.91-2.6-13.91l15.8-7.04,17.86,5.84Z"/>
    <path class="cls-7" d="M161.34,273.53l-8.01,12.86-32.41,13.8,8.11,133.04,5.83,24.1,107.92-3.59,2.67-18.68v-89.71c-2.44-23.03-13.56-37.32-23.87-42.99l-6.75-4.61-2.55-8.45-9.51-8.9-30.47-7.92-10.95,1.05Z"/>
    <g class="cls-24">
      <path class="cls-4" d="M125.45,423.1c6.77,10.63,20.18,16.6,32.61,14.51,10.84-1.82,19.98-8.98,30.37-12.55,18.08-6.22,38.7-1.28,56.52-8.21.35-3.07.14-6.84.35-8.93-8.92-.46-18.41-.96-26.29-5.17l-7.15-2.63-86.41,22.98Z"/>
    </g>
    <g>
      <path class="cls-5" d="M120.92,300.18s-15.38,13.17-10.93,47.49c4.14,31.88,11.48,76.3,21.27,81.45,9.79,5.15,30.92,2.58,46.37-6.18,15.46-8.76,60.29-32.46,60.29-32.46l-18.55-32.98-59.77,23.19s-7.73-52.89-12.37-62"/>
      <path class="cls-5" d="M147.24,318.69s.17.33.47,1.01c.14.34.34.76.53,1.27.17.52.37,1.13.59,1.81.88,2.74,1.93,6.85,3.07,12.2,2.3,10.69,5.09,26.28,8.03,45.67l-.43-.25c16.89-6.58,37.22-14.5,59.74-23.27l.33-.13.18.31c5.87,10.43,12.11,21.5,18.57,32.96l.22.39-.4.21c-12.33,6.64-25.16,13.56-38.32,20.65-6.35,3.42-12.62,6.79-18.8,10.12-3.08,1.65-6.16,3.38-9.35,4.76-3.2,1.36-6.48,2.47-9.77,3.38-6.6,1.73-13.33,2.7-19.93,2.31-3.29-.21-6.57-.73-9.59-2.01l-1.12-.5c-.37-.17-.72-.45-1.08-.67-.65-.53-1.23-1.12-1.74-1.76-1-1.28-1.83-2.65-2.53-4.07-2.8-5.67-4.46-11.58-5.99-17.3-1.5-5.74-2.69-11.37-3.77-16.82-2.12-10.92-3.69-21.15-5-30.51-1.31-9.34-2.46-17.88-2.12-25.42.26-7.53,1.61-13.95,3.39-18.94,1.81-4.99,4-8.54,5.66-10.76.83-1.12,1.55-1.9,2.05-2.42.5-.51.8-.73.8-.73,0,0-.25.26-.73.79-.47.53-1.17,1.33-1.97,2.46-1.61,2.25-3.73,5.8-5.48,10.77-1.72,4.97-3.01,11.36-3.22,18.84-.3,7.49.89,15.97,2.24,25.31,1.35,9.35,2.96,19.57,5.1,30.46,1.09,5.44,2.29,11.06,3.8,16.77,1.54,5.69,3.21,11.58,5.97,17.12.69,1.38,1.5,2.71,2.44,3.92.48.6,1.02,1.14,1.6,1.61.32.19.6.43.95.59l1.07.47c2.88,1.22,6.09,1.73,9.31,1.93,6.47.38,13.13-.58,19.65-2.3,3.25-.91,6.49-2.01,9.65-3.35,3.16-1.36,6.16-3.06,9.27-4.72,6.18-3.33,12.46-6.71,18.8-10.13,13.17-7.09,26.01-14,38.35-20.64l-.18.6c-6.45-11.48-12.67-22.55-18.53-32.99l.51.18c-22.54,8.71-42.89,16.57-59.8,23.1l-.38.14-.06-.4c-2.86-19.39-5.55-35-7.74-45.69-1.09-5.35-2.08-9.47-2.89-12.22-.2-.68-.38-1.29-.54-1.81-.19-.5-.35-.92-.49-1.27-.26-.68-.38-1.05-.38-1.05Z"/>
    </g>
    <g>
      <polygon class="cls-1" points="152.39 338.24 191.21 335.68 199.79 351.83 156.28 359.65 152.39 338.24"/>
      <path class="cls-1" d="M152.39,338.24s.15.56.35,1.55c.22,1.08.51,2.51.87,4.3.73,3.77,1.75,9.05,3.01,15.51l-.4-.27c10.47-1.91,24.18-4.42,39.16-7.15,1.46-.26,2.9-.52,4.33-.78l-.32.65c-3.01-5.69-5.89-11.12-8.56-16.16l.4.22c-11.26.66-20.89,1.22-27.81,1.62-3.38.18-6.09.32-8.07.42-.89.04-1.6.07-2.18.09-.5.02-.77.02-.79,0-.02-.01.21-.05.68-.09.55-.05,1.23-.11,2.08-.19,1.95-.16,4.62-.37,7.95-.64,6.99-.51,16.71-1.22,28.08-2.06l.27-.02.13.24c2.69,5.03,5.58,10.45,8.61,16.13l.29.54-.61.11c-1.43.26-2.87.52-4.33.78-15,2.66-28.72,5.08-39.2,6.94l-.34.06-.06-.34c-1.12-6.57-2.03-11.95-2.68-15.79-.29-1.77-.51-3.19-.69-4.25-.15-.96-.22-1.46-.19-1.44Z"/>
    </g>
    <path class="cls-1" d="M159.6,380.68c.24.19-3.24,4.27-6.14,10.11-2.88,5.85-4.14,11.06-4.43,10.97-.11-.03.09-1.35.64-3.45.56-2.09,1.51-4.95,2.99-7.92,1.48-2.97,3.19-5.46,4.54-7.15,1.35-1.69,2.31-2.63,2.4-2.56Z"/>
    <path class="cls-1" d="M198.59,306.73c-.04.05-.81-.5-2.16-1.55-1.47-1.17-3.37-2.67-5.63-4.47l.49-.08c-1.82,2.95-4.36,6.37-7.71,9.67l-.28.27-.31-.25c-1.87-1.56-3.88-3.22-5.95-4.94-6.38-5.21-12.33-9.72-16.68-12.93-2.07-1.52-3.79-2.8-5.15-3.8-1.22-.9-1.87-1.42-1.84-1.47s.76.37,2.04,1.18c1.27.82,3.1,2.02,5.32,3.57,4.44,3.09,10.47,7.52,16.87,12.75,2.09,1.71,4.09,3.39,5.94,4.98l-.58.02c3.31-3.22,5.88-6.55,7.75-9.41l.21-.32.28.24c2.19,1.89,4.02,3.47,5.44,4.7,1.27,1.13,1.96,1.78,1.92,1.83Z"/>
    <path class="cls-1" d="M214.56,298.56c.08,0,.23.78.32,2.16.08,1.39.09,3.38-.2,5.75l-.12,1.02-.59-.86c-1.25-1.81-2.8-3.89-4.61-5.97-.69-.8-1.39-1.57-2.08-2.29-.33-.34-.71-.76-1-1.01-.35-.22-.31-.23-.6.1-1.03,1.44-1.99,2.77-2.86,3.99-1.65,2.26-2.73,3.63-2.83,3.56-.1-.07.79-1.56,2.31-3.92.83-1.26,1.74-2.64,2.72-4.12.15-.2.37-.5.8-.59.43-.08.78.13,1,.3.45.38.73.7,1.1,1.08.71.73,1.42,1.5,2.13,2.32,1.83,2.12,3.38,4.25,4.58,6.13l-.71.16c.7-4.63.45-7.8.65-7.81Z"/>
    <path class="cls-1" d="M145.46,313.47c-.11.08-.97-1.07-2.41-2.86-1.45-1.76-3.52-4.2-6.36-6.16-2.86-1.95-5.93-2.81-8.17-3.19-2.25-.37-3.69-.41-3.68-.56,0-.09,1.44-.28,3.77-.07,2.31.23,5.58,1.03,8.58,3.08,2.98,2.06,5.02,4.64,6.37,6.52,1.33,1.91,2,3.18,1.9,3.24Z"/>
    <path class="cls-1" d="M229.8,337.29c-.24.07-1.61-3.63-3.07-8.27-1.46-4.64-2.45-8.47-2.21-8.54.24-.07,1.61,3.63,3.07,8.27,1.46,4.64,2.45,8.47,2.21,8.54Z"/>
    <path class="cls-1" d="M245.07,413.29c.13,0,.2,1.31.35,3.4.14,2.1.37,5,.51,8.22.14,3.22.08,6.17-.17,8.28-.24,2.12-.63,3.39-.73,3.36-.14-.03.03-1.32.1-3.41.09-2.09.05-4.99-.09-8.2-.14-3.21-.27-6.12-.25-8.24.02-2.12.17-3.43.29-3.42Z"/>
    <path class="cls-10" d="M174.64,349.56c-.96,1-.5,2.95.81,3.42,1.31.47,2.9-.75,2.79-2.13-.11-1.38-1.86-2.34-3.08-1.68"/>
    <g class="cls-24">
      <polygon class="cls-4" points="149.8 326.61 160.69 358.86 196.58 352.41 161.98 365.97 159.07 377.15 149.8 326.61"/>
    </g>
    <g class="cls-24">
      <path class="cls-4" d="M154.32,287.81l32.1,29.09,4.96-13.57,5.2,1.73-5.56-4.61s-6.1,9.37-7.73,9.54l-28.97-22.18Z"/>
    </g>
    <path class="cls-1" d="M215.47,357.36c-.06.01-.29-.68-.65-1.95-.41-1.45-.92-3.26-1.52-5.39-1.28-4.55-3.12-10.81-5.38-17.66-2.27-6.84-4.53-12.97-6.21-17.38-.79-2.07-1.46-3.82-2-5.23-.47-1.24-.7-1.93-.64-1.96.06-.02.4.63.96,1.82.57,1.2,1.34,2.95,2.26,5.13,1.84,4.36,4.2,10.47,6.48,17.34,2.27,6.86,4.02,13.18,5.14,17.78.56,2.3.99,4.17,1.24,5.47.26,1.3.38,2.02.32,2.04Z"/>
    <g>
      <path class="cls-1" d="M215,321.53c6.07,6.06,21.45,21.83,21.45,21.83l4.12-2.48-21.67-23.12c-.9-.97-2.37-1.14-3.48-.41h0c-1.43.95-1.63,2.97-.42,4.18Z"/>
      <g>
        <path class="cls-16" d="M219.37,357.5l5.17-14.55c1.13-3.19,4.06-5.56,7.45-5.59.26,0,.53,0,.78.04,3.09.34,18.89,1.37,18.89,1.37l6.12,6.85c1.05,1.17,1.08,2.93.07,4.14h0l1.75,12.37-3.47,2.35.34,8.64s-3.09,2.06-4.47,1.37l-1.37-.69-2.06-2.06-5.84,8.24-8.08,4.67-15.28-27.17Z"/>
        <path class="cls-15" d="M257.87,350.43c-.13.07-.68-1.11-2.21-2.41-.75-.63-1.77-1.35-2.95-1.78-1.19-.4-2.71-.41-4.27-.58-6.25-.59-11.3-1.26-11.28-1.51.02-.25,5.11.03,11.36.62,1.55.18,3.07.19,4.46.69,1.36.56,2.34,1.35,3.1,2.09,1.52,1.51,1.88,2.85,1.78,2.87Z"/>
        <path class="cls-15" d="M257.53,361.8c-.16.03-.23-1.35-1.27-3.16-1.01-1.81-3.14-3.95-6.11-5.12-2.98-1.17-5.96-1.31-8.08-1.36-2.13-.03-3.47.02-3.48-.11-.01-.11,1.3-.39,3.47-.52,2.15-.12,5.25-.08,8.42,1.16,3.18,1.26,5.41,3.64,6.34,5.66.96,2.03.79,3.48.71,3.46Z"/>
        <path class="cls-15" d="M255.97,372.41c-.13.06-.66-1.25-.83-3.41-.12-1.06-.23-2.33-.78-3.54-.51-1.25-1.69-2.1-3.24-2.46-3.1-.83-6.09-.87-8.23-1.19-2.15-.26-3.44-.68-3.41-.8.03-.13,1.33.07,3.47.16,2.12.15,5.14.08,8.41.95.81.22,1.63.53,2.31,1.06.69.52,1.16,1.24,1.45,1.94.58,1.41.61,2.76.65,3.83,0,2.15.29,3.41.19,3.45Z"/>
      </g>
      <polygon class="cls-3" points="264.58 345.1 196.45 415.47 199.07 418.13 247.88 412.63 313.57 350.06 313.5 347.05 264.58 345.1"/>
      <g class="cls-24">
        <path class="cls-4" d="M268.99,389.33c-2.56-2.48-6.28-3.58-9.84-3.29-3.55.28-6.93,1.86-9.7,4.1-2.23,1.79-4.18,4.12-4.83,6.91-1.14,4.87,2.1,9.98,6.51,12.33l.61-.71c5.59-4.49,11.19-8.98,16.78-13.48.84-.67,1.73-1.43,1.94-2.48.26-1.26-.55-2.5-1.48-3.39Z"/>
      </g>
      <path class="cls-16" d="M261.8,382.74s6.61.13,8.76,1.2c2.15,1.08,8.07,7.39,8.07,7.39,0,0,0,4.29-1.72,4.47,0,0,.17.52.34,2.92s.52,3.78-2.75,5.84c0,0,.34,3.95-.86,4.98-1.2,1.03-2.58,1.89-2.58,1.89,0,0-3.78,4.64-6.01,4.29-2.23-.34-5.46,2.4-5.46,2.4,0,0-12.14-5.03-10.85-6.45s4.19-4.66,4.19-4.66c0,0-8.32-6.06-8.14-7.95.17-1.89.86-2.06.86-2.06,0,0-.34-3.61,2.58-3.95,0,0,2.23-4.47,4.47-4.64,2.23-.17,17.35,5.32,17.35,5.32l-5.67-4.81s-5.67-.86-5.5-2.75,2.92-3.44,2.92-3.44Z"/>
      <path class="cls-15" d="M260.79,405.37c-.14.22-3.44-1.69-7.67-3.72-4.22-2.05-7.77-3.45-7.68-3.69.07-.22,3.8.81,8.07,2.88,4.28,2.06,7.41,4.34,7.28,4.53Z"/>
      <path class="cls-15" d="M268.66,400.11c-.09.23-4.5-1.2-9.86-3.2-5.36-2-9.63-3.81-9.54-4.04.09-.23,4.5,1.2,9.86,3.2,5.36,2,9.63,3.81,9.54,4.04Z"/>
      <path class="cls-1" d="M313.3,349.92s-.31.04-.9.05c-.66,0-1.53,0-2.6,0-2.36-.03-5.65-.07-9.77-.11-8.44-.16-20.22-.39-33.96-.65l.31-.13c-5.28,5.47-11.05,11.46-17.07,17.7-13.8,14.2-26.28,27.05-35.39,36.43-4.51,4.58-8.19,8.32-10.8,10.97-1.24,1.24-2.23,2.22-2.97,2.95-.69.67-1.06,1.01-1.08.99s.31-.4.95-1.11c.71-.76,1.65-1.78,2.85-3.07,2.56-2.7,6.17-6.5,10.59-11.17,9.06-9.42,21.48-22.34,35.21-36.61,6.04-6.23,11.82-12.21,17.11-17.66l.13-.13h.18c13.74.4,25.51.74,33.95.98,4.11.15,7.4.27,9.76.35,1.08.05,1.93.1,2.6.13.59.04.9.07.9.09Z"/>
    </g>
    <g>
      <path class="cls-1" d="M229.83,209.79c-1.92-2.58-5.21-3.73-8.38-4.3-1.83-.33-3.82-.49-5.44.41-2.11,1.17-2.98,3.86-2.78,6.27.2,2.41,1.23,4.66,2.08,6.92.85,2.26,1.53,4.72.99,7.08l6.18,14.73c2.12-.8,3.85-2.56,4.61-4.69.76-2.13.53-4.59-.61-6.55,1.95-1.05,3.39-3.01,3.82-5.19.42-2.18-.17-4.53-1.59-6.24,2.83-1.54,3.04-5.85,1.13-8.44Z"/>
      <path class="cls-1" d="M172.75,248.26c-.24-9.93-.49-19.86-.73-29.79l-18.84-.86c-2.28.58-4.15,2.54-4.62,4.85-.47,2.31.49,4.85,2.36,6.27-2.88,1.3-4.79,4.51-4.55,7.66.24,3.15,2.62,6.03,5.67,6.88-1.72,2.13-2.18,5.21-1.17,7.75,1.01,2.54,3.46,4.46,6.17,4.83.09,3.51,1.95,7.31,5.33,8.27,3.56,1.01,7.35-1.6,8.94-4.95s1.53-7.21,1.44-10.91Z"/>
      <path class="cls-1" d="M152.67,214.33s1.86,24.63,4.27,32.14,7.73,15.61,7.73,15.61l57.48-17.85c1.94-13.3,3.95-26.67,3.14-37.15l-18.34-6.53-54.28,13.77Z"/>
      <g>
        <path class="cls-1" d="M164.83,246.47c-2.27-6.64-4.51-13.34-5.59-20.27-1.09-6.93-.98-14.18,1.37-20.79.36-1,3.42-7.74,4.48-7.65.76.06-1.1,6.33-.71,6.98,3.74,6.22,4.84,13.75,4.36,20.99-.48,7.24-1.89,13.77-3.91,20.74"/>
        <path class="cls-16" d="M204.74,292.6s0-16.67.03-16.67c0,0,16.98-1.96,17.85-18.83.42-8.15-.08-25-.71-40.24-.68-16.38-13.83-29.5-30.21-30.14l-1.63-.06c-17.6.34-27.14,15.47-26.32,33.06l-.05,57.13,34.8,25.09,6.23-9.33Z"/>
        <path class="cls-15" d="M204.77,275.93s-10.66.21-21.72-7.36c0,0,4.88,12.48,21.78,11.62l-.06-4.27Z"/>
        <path class="cls-1" d="M216.41,231.29c0,1.27-1.09,2.32-2.42,2.34-1.33.02-2.4-1-2.4-2.27,0-1.27,1.09-2.32,2.42-2.34,1.33-.02,2.41,1,2.4,2.27Z"/>
        <path class="cls-1" d="M218.03,223.72c-.31.3-2.08-1.12-4.68-1.21-2.59-.13-4.55,1.13-4.81.8-.13-.15.19-.7,1.05-1.27.84-.57,2.25-1.1,3.87-1.03,1.62.07,2.95.72,3.71,1.36.77.64,1.02,1.22.87,1.36Z"/>
        <path class="cls-1" d="M193.16,231.7c0,1.27-1.09,2.32-2.42,2.34-1.33.02-2.4-1-2.4-2.27,0-1.27,1.09-2.32,2.42-2.34,1.33-.02,2.41,1,2.4,2.27Z"/>
        <path class="cls-1" d="M192.59,223.77c-.31.3-2.09-1.12-4.68-1.21-2.59-.13-4.54,1.13-4.81.8-.13-.15.19-.7,1.05-1.27.84-.57,2.25-1.1,3.87-1.03,1.61.07,2.95.72,3.71,1.36.77.64,1.02,1.22.87,1.36Z"/>
        <path class="cls-1" d="M201.11,244.06c0-.15,1.62-.36,4.24-.59.67-.04,1.3-.15,1.43-.6.17-.47-.07-1.2-.37-1.98-.56-1.63-1.15-3.33-1.76-5.12-2.44-7.29-4.18-13.27-3.88-13.36.29-.1,2.51,5.73,4.95,13.02.59,1.8,1.15,3.51,1.68,5.15.22.76.62,1.63.24,2.61-.2.49-.7.83-1.13.93-.43.11-.8.11-1.13.11-2.63.04-4.27-.01-4.27-.16Z"/>
        <path class="cls-1" d="M193.41,245.56c.42,0,.32,2.81,2.65,4.9,2.33,2.1,5.34,1.9,5.35,2.29.03.18-.69.52-1.96.51-1.24,0-3.04-.48-4.47-1.76-1.42-1.28-1.99-2.94-2.04-4.1-.06-1.18.28-1.87.47-1.84Z"/>
        <path class="cls-1" d="M193.78,214.86c-.28.7-2.86.26-5.92.51-3.06.19-5.55.98-5.93.33-.17-.31.29-.96,1.3-1.6,1.01-.64,2.6-1.23,4.44-1.36,1.83-.13,3.5.23,4.59.72,1.1.49,1.64,1.07,1.52,1.4Z"/>
        <path class="cls-1" d="M217.3,215.05c-.48.57-2.24-.11-4.39-.22-2.14-.19-3.98.24-4.38-.39-.17-.31.14-.88.95-1.41.8-.53,2.13-.93,3.61-.83,1.47.1,2.73.69,3.46,1.32.74.64.96,1.25.75,1.53Z"/>
        <path class="cls-16" d="M164.64,232.26c-.28-.14-11.46-3.88-11.55,7.67-.08,11.55,11.53,9.25,11.55,8.92.02-.33,0-16.59,0-16.59Z"/>
        <path class="cls-15" d="M161.15,244.45c-.05-.04-.2.14-.54.29-.33.15-.9.25-1.5.02-1.22-.46-2.23-2.4-2.27-4.48-.02-1.05.21-2.05.58-2.88.36-.84.91-1.43,1.52-1.53.61-.14,1.04.23,1.18.56.15.32.08.55.14.57.03.03.25-.19.16-.67-.05-.23-.18-.5-.45-.73-.28-.23-.68-.35-1.11-.3-.89.05-1.7.87-2.12,1.78-.47.91-.75,2.03-.72,3.22.06,2.33,1.23,4.52,2.9,5.01.81.22,1.49-.02,1.84-.29.36-.28.42-.54.38-.56Z"/>
        <path class="cls-1" d="M214.41,197.73c1.87-1.03-3.75-7.08-8.35-9.16-6.95-3.14-17.56-5.06-23.96-3.24-7.71,2.2-14.1,6.04-17.96,13.07-3.86,7.02-5.3,15.2-5.06,23.21.07,2.44.33,4.99,1.64,7.06,1.62,2.55,4.72,4.16,4.59,7.68-.05,1.29.32,2.59,1.21,3.52,2.12,2.25,4.7.13,5.89-1.99,2.53-4.53,2.81-9.93,3.02-15.12.15-3.68.3-7.45-.75-10.99-.57-1.92-1.48-3.74-1.94-5.7-.46-1.95-.41-4.17.81-5.77.2-.26.52-.59.94-.95,3.27-2.87,7.85-3.74,11.95-2.29,6.51,2.29,17.62,5.71,20.52,3.5,4.17-3.18,5.16-5.26,5.16-5.26l2.3,2.42Z"/>
      </g>
      <g>
        <path class="cls-14" d="M181.73,173.39c-.81.09-20.58,3.86-25.98,18.31-5.4,14.45-4.11,18.98-4.11,18.98,0,0-1.16.65-2.11,1.69-.85.93.19,5.58,2.77,5.14,19.45-7.84,42.15-7.93,67.4-6.3l19.36.41c5.4.81,7.35-.56,5.11-2-1.72-1.1-16.88-7.79-16.88-7.79l-2.95-2.3-7.62-11.35s1.04-1.51-.87-2.86c-1.91-1.35-18.03-13.63-34.11-11.94Z"/>
        <path class="cls-14" d="M224.34,199.53s-.26,0-.75-.02c-.59-.03-1.3-.07-2.16-.12-1.87-.14-4.59-.21-7.94-.25-6.7,0-15.99.51-26.06,2.34-10.09,1.76-19.04,4.24-25.47,6.13-3.22.94-5.81,1.75-7.61,2.3-.82.25-1.5.46-2.07.63-.47.14-.73.2-.73.2,0,0,.24-.1.71-.26.56-.19,1.23-.42,2.05-.69,1.78-.59,4.36-1.43,7.58-2.4,6.42-1.95,15.37-4.47,25.48-6.23,10.09-1.83,19.41-2.3,26.12-2.24,6.72.1,10.85.62,10.85.62Z"/>
        <g class="cls-24">
          <path class="cls-14" d="M163.53,181.41s21.26-2.71,30.57,2.16c-.36-.2-.72-.39-1.08-.59,2.94,1.41,5.88,2.82,8.81,4.23,1.49.71,3.24,1.43,4.72.72,0,0-4.63-4.45-13.38-7.74-8.74-3.29-22.75-5.05-29.65,1.22Z"/>
        </g>
        <path class="cls-14" d="M163.22,181.51s.64-.49,1.94-1.18c1.29-.68,3.22-1.58,5.76-2.23,2.52-.68,5.64-1.11,9.1-.99,3.44.11,7.3.72,10.9,2.51,1.8.87,3.45,1.92,5.03,2.93,1.56,1.04,3.11,1.96,4.51,3,1.39,1.03,2.66,2.06,4.02,2.74,1.34.74,2.76.89,4.06.96,5.19.25,8.42-.72,8.2-1.06,0-.01-.07.22-.43.4-.35.17-.89.35-1.61.48-1.44.27-3.55.5-6.17.41-1.29-.05-2.79-.2-4.17-.95-1.4-.68-2.69-1.72-4.07-2.74-1.38-1.01-2.95-1.93-4.5-2.97-1.58-1.01-3.21-2.05-5-2.91-3.55-1.77-7.35-2.38-10.77-2.51-3.43-.13-6.52.27-9.03.92-2.52.62-4.46,1.48-5.76,2.12-.65.32-1.15.6-1.48.79-.33.19-.52.27-.52.27Z"/>
        <g class="cls-24">
          <path class="cls-14" d="M153.71,197.74c3.79.1,6.7-.78,10.49-1.48,4.04-.74,8.03-1.3,12.03-2.23,3.03-.71,6.62-1.31,8.65-3.42.23,1.58-.29,2.99-1.48,4.06-1.19,1.07-4.97,2.26-6.52,2.62-8.86,2.1-15,3.5-24.13,3.82.11-.94.96-3.37.96-3.37"/>
        </g>
        <path class="cls-14" d="M156.42,190.12c-2.44.96-3.93,1.61-4.07,3.66-.12,1.7.16,3.79,1.83,4.15.51.11,1.04.02,1.55-.06,8.78-1.46,17.56-2.93,26.34-4.39.89-.15,1.86-.34,2.44-1.03.89-1.06.34-2.81-.78-3.63-1.12-.82-2.59-.95-3.98-1.02-7.88-.41-15.62.63-23.33,2.33"/>
        <path class="cls-14" d="M184.09,192.82s.47-.27.74-1.12c.26-.79.21-2.28-.96-3.34-1.2-1-3.15-1.38-5.22-1.34-2.1.03-4.42.1-6.84.26-4.85.29-9.2.98-12.28,1.75-1.55.37-2.78.75-3.62,1.02-.35.11-.67.22-.97.32-.22.07-.34.1-.35.09,0-.01.11-.06.33-.15.3-.12.61-.24.96-.38.84-.3,2.06-.72,3.61-1.12,3.08-.84,7.46-1.56,12.32-1.86,2.43-.16,4.75-.21,6.86-.23,2.11-.02,4.11.38,5.38,1.47,1.23,1.17,1.24,2.73.93,3.55-.16.43-.39.71-.56.87-.19.15-.29.21-.3.2Z"/>
        <polygon class="cls-13" points="219.11 191.75 202.66 190.85 203.89 195.53 221.8 195.76 219.11 191.75"/>
        <path class="cls-14" d="M193.72,205.51c0-.09,7.37-.89,16.47-1.78,9.11-.9,16.49-1.55,16.5-1.46,0,.09-7.36.89-16.47,1.78-9.1.9-16.49,1.55-16.5,1.46Z"/>
      </g>
    </g>
    <rect class="cls-3" x="122.08" y="438.02" width="126.59" height="21.13"/>
    <path class="cls-3" d="M125.95,448.23h58.62v64.42c0,3.82-3.1,6.92-6.92,6.92h-44.78c-3.82,0-6.92-3.1-6.92-6.92v-64.42h0Z"/>
    <path class="cls-1" d="M184.57,467.54c-.07,0-.15-1.31-.24-3.67-.16-2.34-.15-5.83-1.3-9.83-.33-.97-.74-1.98-1.52-2.73-.8-.8-1.73-1.52-2.76-2.16-2.07-1.26-4.61-2.04-7.34-2.32-5.5-.41-11.69-.22-18.13-.16-6.46.23-12.66-.52-18.06.66-2.66.57-5.21,1.56-6.73,3.4-1.51,1.85-1.91,4.2-2.14,6.26-.39,4.17-.3,7.62-.39,9.98-.03,1.1-.06,2-.08,2.72-.03.62-.06.95-.09.95-.03,0-.06-.33-.09-.95-.02-.72-.05-1.62-.09-2.72-.02-2.37-.21-5.78.11-10.04.2-2.09.55-4.58,2.19-6.66,1.69-2.08,4.39-3.12,7.13-3.74,2.78-.61,5.76-.8,8.82-.76,3.04.05,6.18.05,9.41,0,6.46-.06,12.59-.22,18.23.24,2.82.31,5.48,1.15,7.64,2.51,1.07.69,2.03,1.46,2.86,2.31.89.88,1.31,2.01,1.63,3.03,1.11,4.18.98,7.65,1.04,10.01-.02,1.1-.03,2-.04,2.73-.02.62-.03.95-.07.95Z"/>
    <path class="cls-1" d="M184.14,473.8c0,.25-12.89.45-28.79.45s-28.79-.2-28.79-.45,12.89-.45,28.79-.45,28.79.2,28.79.45Z"/>
    <path class="cls-1" d="M142.73,520.23c-.25,0-.45-10.42-.45-23.28s.2-23.28.45-23.28.45,10.42.45,23.28-.2,23.28-.45,23.28Z"/>
    <path class="cls-1" d="M169.16,520.02c-.25,0-.45-10.33-.45-23.07s.2-23.07.45-23.07.45,10.33.45,23.07-.2,23.07-.45,23.07Z"/>
    <path class="cls-3" d="M248.67,438.02l7.3,10.22s6.53,60.88,3.63,63.69c-2.9,2.81-12.7,2.8-12.7,2.8l-2.68-72.92,4.44-3.8Z"/>
    <path class="cls-1" d="M225.74,458.31c-.24.02-.87-4.56-.94-10.26-.08-5.7.43-10.3.66-10.28.26.02.15,4.61.23,10.27.07,5.66.3,10.25.04,10.27Z"/>
    <path class="cls-1" d="M248.81,438.35c.12-.02.44,1.29.78,3.42.34,2.14.69,5.11.87,8.41.09,1.64.14,3.27-.19,4.74-.3,1.47-1.08,2.71-1.98,3.42-.89.73-1.83,1-2.47,1.01-.64,0-.96-.16-.95-.2-.02-.15,1.48.18,3-1.28.75-.7,1.35-1.77,1.59-3.12.26-1.34.2-2.88.1-4.52-.34-6.55-1.01-11.85-.76-11.89Z"/>
  </g>
  <g>
    <g>
      <path class="cls-13" d="M832.41,416.24l8.07-7.61c6.25.96,12.84.27,19.1-2.38,17.99-7.59,26.43-28.34,18.83-46.33-7.59-17.99-28.34-26.43-46.33-18.83-17.99,7.59-26.43,28.33-18.83,46.33,3.17,7.51,8.64,13.35,15.24,17.06h-.02s3.95,11.76,3.95,11.76Z"/>
      <path class="cls-1" d="M832.41,416.24s-.08-.28-.25-.79c-.17-.53-.41-1.28-.74-2.27-.65-2-1.61-4.93-2.86-8.74l-.13.14h.02c.06.02.12-.01.13-.07.01-.05-.01-.1-.05-.12-4.01-2.29-8.85-6.08-12.56-12.07-.92-1.49-1.78-3.1-2.51-4.84-.65-1.77-1.38-3.58-1.79-5.55-.94-3.89-1.27-8.2-.7-12.63.56-4.42,2.02-8.95,4.45-13.15,2.42-4.2,5.82-8.06,10.05-11.07,8.38-6.09,20.32-8.36,31.17-4.78,5.5,1.83,10.53,4.87,14.37,8.93,3.88,4.01,6.69,8.83,8.3,13.87,1.64,5.04,1.96,10.28,1.32,15.16-.65,4.9-2.3,9.44-4.61,13.33-2.3,3.9-5.24,7.14-8.41,9.66-.4.31-.8.61-1.2.92-.39.31-.79.61-1.22.85-.84.52-1.66,1.02-2.47,1.52-1.71.81-3.33,1.69-5,2.26-6.65,2.42-12.78,2.4-17.24,1.73-.03,0-.07,0-.09.03-2.58,2.48-4.57,4.38-5.93,5.69-.67.65-1.18,1.14-1.54,1.48-.35.34-.53.52-.53.52,0,0,.17-.15.52-.47.36-.33.87-.81,1.55-1.43,1.39-1.29,3.43-3.18,6.07-5.64l-.09.03c4.48.72,10.66.77,17.38-1.63,1.69-.57,3.32-1.44,5.06-2.26.82-.5,1.65-1.01,2.5-1.52.43-.24.84-.54,1.23-.85.4-.3.81-.61,1.21-.92,3.21-2.53,6.2-5.8,8.54-9.74,2.34-3.93,4.03-8.53,4.69-13.49.66-4.94.34-10.26-1.32-15.37-1.63-5.1-4.47-10-8.41-14.07-3.89-4.12-8.99-7.21-14.57-9.06-.67-.27-1.37-.42-2.07-.59l-2.08-.51-2.11-.31c-.7-.11-1.4-.22-2.11-.23-.71-.03-1.41-.07-2.11-.1-.7-.05-1.4.04-2.1.06-.7.05-1.4.04-2.09.13-.69.1-1.38.2-2.06.31-5.47.89-10.59,3.03-14.85,6.11-4.28,3.06-7.72,6.97-10.16,11.23-2.45,4.26-3.92,8.85-4.47,13.33-.56,4.48-.22,8.84.75,12.77.42,1.99,1.17,3.82,1.83,5.6.74,1.75,1.62,3.38,2.56,4.88,3.78,6.03,8.69,9.82,12.74,12.09l.08-.2h-.02c-.06-.02-.12.01-.13.07,0,.02,0,.04,0,.06,1.32,3.83,2.33,6.77,3.02,8.77.34.97.59,1.71.77,2.22.17.5.26.73.26.73Z"/>
    </g>
    <polygon class="cls-1" points="827.41 373.07 832.73 368.3 841.99 377.47 858.82 361.78 863.23 367.08 840.75 387.17 827.41 373.07"/>
  </g>
</svg>