<?xml version="1.0" encoding="UTF-8"?>
<svg id="Capa_1" data-name="Capa 1" xmlns="http://www.w3.org/2000/svg" viewBox="0 0 244.18 248.18">
  <defs>
    <style>
      .cls-1 {
        fill: #28a088;
        stroke-width: 0px;
      }
    </style>
  </defs>
  <rect class="cls-1" x="57.3" y="47.75" width="41.3" height="139.11" rx="20.65" ry="20.65"/>
  <rect class="cls-1" x="120.06" y="0" width="41.3" height="185.23" rx="20.65" ry="20.65"/>
  <rect class="cls-1" x="185.96" y="48.57" width="34.45" height="137.48" rx="17.23" ry="17.23"/>
  <path class="cls-1" d="M217.12,198.4H23.72c-6.46,0-10.08-7.44-6.09-12.52l16.64-21.2c1.47-1.87,3.71-2.96,6.09-2.96h196.06c6.72,0,10.25,7.98,5.72,12.95l-19.31,21.2c-1.47,1.61-3.54,2.53-5.72,2.53Z"/>
  <path class="cls-1" d="M201.07,248.18H7.79c-6.43,0-10.08-7.35-6.19-12.47l16.05-21.13c1.47-1.94,3.76-3.07,6.19-3.07h193.75c6.48,0,10.11,7.46,6.12,12.56l-16.52,21.13c-1.47,1.88-3.73,2.99-6.12,2.99Z"/>
</svg>